REM DIRINDEX 1\2,1\3,1\4,1\5
REM DIRNAME "folder01","folder02","folder03","folder04","folder05"
TITLE ""
FILE "1Q_t_1320-1329.mp3" MP3
  TRACK 01 AUDIO
    TITLE "0:"
    INDEX 01 00:00:00
  TRACK 02 AUDIO
    TITLE "3:cjc172_4934"
    INDEX 01 00:00:08
  TRACK 03 AUDIO
    TITLE "0:"
    INDEX 01 00:01:10
  TRACK 04 AUDIO
    TITLE "4:cjc172_4935"
    INDEX 01 00:01:18
  TRACK 05 AUDIO
    TITLE "0:"
    INDEX 01 00:03:16
  TRACK 06 AUDIO
    TITLE "5:cjc172_4936"
    INDEX 01 00:03:22
  TRACK 07 AUDIO
    TITLE "0:"
    INDEX 01 00:08:10
  TRACK 08 AUDIO
    TITLE "3:cjc172_4937"
    INDEX 01 00:08:57
  TRACK 09 AUDIO
    TITLE "0:"
    INDEX 01 00:09:74
  TRACK 10 AUDIO
    TITLE "4:cjc172_4938"
    INDEX 01 00:10:09
  TRACK 11 AUDIO
    TITLE "0:"
    INDEX 01 00:13:07
  TRACK 12 AUDIO
    TITLE "5:cjc172_4939"
    INDEX 01 00:13:15
  TRACK 13 AUDIO
    TITLE "0:"
    INDEX 01 00:18:40
  TRACK 14 AUDIO
    TITLE "3:cjc172_4940"
    INDEX 01 00:19:08
  TRACK 15 AUDIO
    TITLE "0:"
    INDEX 01 00:20:27
  TRACK 16 AUDIO
    TITLE "4:cjc172_4941"
    INDEX 01 00:20:37
  TRACK 17 AUDIO
    TITLE "0:"
    INDEX 01 00:22:35
  TRACK 18 AUDIO
    TITLE "5:cjc172_4942"
    INDEX 01 00:22:41
  TRACK 19 AUDIO
    TITLE "0:"
    INDEX 01 00:27:23
  TRACK 20 AUDIO
    TITLE "3:cjc172_4943"
    INDEX 01 00:27:68
  TRACK 21 AUDIO
    TITLE "0:"
    INDEX 01 00:29:12
  TRACK 22 AUDIO
    TITLE "4:cjc172_4944"
    INDEX 01 00:29:18
  TRACK 23 AUDIO
    TITLE "0:"
    INDEX 01 00:32:04
  TRACK 24 AUDIO
    TITLE "5:cjc172_4945"
    INDEX 01 00:32:12
  TRACK 25 AUDIO
    TITLE "0:"
    INDEX 01 00:36:51
  TRACK 26 AUDIO
    TITLE "3:cjc172_4946"
    INDEX 01 00:37:27
  TRACK 27 AUDIO
    TITLE "0:"
    INDEX 01 00:38:38
  TRACK 28 AUDIO
    TITLE "4:cjc172_4947"
    INDEX 01 00:38:44
  TRACK 29 AUDIO
    TITLE "0:"
    INDEX 01 00:40:16
  TRACK 30 AUDIO
    TITLE "5:cjc172_4948"
    INDEX 01 00:40:22
  TRACK 31 AUDIO
    TITLE "0:"
    INDEX 01 00:44:51
  TRACK 32 AUDIO
    TITLE "3:cjc172_4949"
    INDEX 01 00:45:21
  TRACK 33 AUDIO
    TITLE "0:"
    INDEX 01 00:46:32
  TRACK 34 AUDIO
    TITLE "4:cjc172_4950"
    INDEX 01 00:46:40
  TRACK 35 AUDIO
    TITLE "0:"
    INDEX 01 00:49:34
  TRACK 36 AUDIO
    TITLE "5:cjc172_4951"
    INDEX 01 00:49:40
  TRACK 37 AUDIO
    TITLE "0:"
    INDEX 01 00:54:20
  TRACK 38 AUDIO
    TITLE "3:cjc172_4952"
    INDEX 01 00:54:65
  TRACK 39 AUDIO
    TITLE "0:"
    INDEX 01 00:55:66
  TRACK 40 AUDIO
    TITLE "4:cjc172_4953"
    INDEX 01 00:56:01
  TRACK 41 AUDIO
    TITLE "0:"
    INDEX 01 00:58:49
  TRACK 42 AUDIO
    TITLE "5:cjc172_4954"
    INDEX 01 00:58:55
  TRACK 43 AUDIO
    TITLE "0:"
    INDEX 01 01:03:44
  TRACK 44 AUDIO
    TITLE "3:cjc172_4955"
    INDEX 01 01:04:18
  TRACK 45 AUDIO
    TITLE "0:"
    INDEX 01 01:05:37
  TRACK 46 AUDIO
    TITLE "4:cjc172_4956"
    INDEX 01 01:05:43
  TRACK 47 AUDIO
    TITLE "0:"
    INDEX 01 01:07:11
  TRACK 48 AUDIO
    TITLE "5:cjc172_4957"
    INDEX 01 01:07:15
  TRACK 49 AUDIO
    TITLE "0:"
    INDEX 01 01:11:53
  TRACK 50 AUDIO
    TITLE "3:cjc172_4958"
    INDEX 01 01:12:22
  TRACK 51 AUDIO
    TITLE "0:"
    INDEX 01 01:13:46
  TRACK 52 AUDIO
    TITLE "4:cjc172_4959"
    INDEX 01 01:13:54
  TRACK 53 AUDIO
    TITLE "0:"
    INDEX 01 01:15:08
  TRACK 54 AUDIO
    TITLE "5:cjc172_4960"
    INDEX 01 01:15:14
  TRACK 55 AUDIO
    TITLE "0:"
    INDEX 01 01:19:73
  TRACK 56 AUDIO
    TITLE "3:cjc172_4961"
    INDEX 01 01:20:54
  TRACK 57 AUDIO
    TITLE "0:"
    INDEX 01 01:21:70
  TRACK 58 AUDIO
    TITLE "4:cjc172_4962"
    INDEX 01 01:22:00
  TRACK 59 AUDIO
    TITLE "0:"
    INDEX 01 01:23:10
  TRACK 60 AUDIO
    TITLE "5:cjc172_4963"
    INDEX 01 01:23:16
  TRACK 61 AUDIO
    TITLE "0:"
    INDEX 01 01:27:68
